<svg id="visual" viewBox="0 0 900 600" width="900" height="600" xmlns="http://www.w3.org/2000/svg" xmlns:xlink="http://www.w3.org/1999/xlink" version="1.1"><path d="M0 403L21.5 396C43 389 86 375 128.8 370C171.7 365 214.3 369 257.2 377.7C300 386.3 343 399.7 385.8 403.3C428.7 407 471.3 401 514.2 407.8C557 414.7 600 434.3 642.8 438.7C685.7 443 728.3 432 771.2 420.7C814 409.3 857 397.7 878.5 391.8L900 386L900 601L878.5 601C857 601 814 601 771.2 601C728.3 601 685.7 601 642.8 601C600 601 557 601 514.2 601C471.3 601 428.7 601 385.8 601C343 601 300 601 257.2 601C214.3 601 171.7 601 128.8 601C86 601 43 601 21.5 601L0 601Z" fill="#86c7ed"></path><path d="M0 427L21.5 430C43 433 86 439 128.8 452.2C171.7 465.3 214.3 485.7 257.2 495C300 504.3 343 502.7 385.8 494.7C428.7 486.7 471.3 472.3 514.2 461.8C557 451.3 600 444.7 642.8 443.5C685.7 442.3 728.3 446.7 771.2 449C814 451.3 857 451.7 878.5 451.8L900 452L900 601L878.5 601C857 601 814 601 771.2 601C728.3 601 685.7 601 642.8 601C600 601 557 601 514.2 601C471.3 601 428.7 601 385.8 601C343 601 300 601 257.2 601C214.3 601 171.7 601 128.8 601C86 601 43 601 21.5 601L0 601Z" fill="#41ade7"></path><path d="M0 560L21.5 558C43 556 86 552 128.8 546.7C171.7 541.3 214.3 534.7 257.2 525.5C300 516.3 343 504.7 385.8 504C428.7 503.3 471.3 513.7 514.2 514.8C557 516 600 508 642.8 510.7C685.7 513.3 728.3 526.7 771.2 531.7C814 536.7 857 533.3 878.5 531.7L900 530L900 601L878.5 601C857 601 814 601 771.2 601C728.3 601 685.7 601 642.8 601C600 601 557 601 514.2 601C471.3 601 428.7 601 385.8 601C343 601 300 601 257.2 601C214.3 601 171.7 601 128.8 601C86 601 43 601 21.5 601L0 601Z" fill="#2d80ac"></path></svg>